<svg xmlns="http://www.w3.org/2000/svg" fill="none" viewBox="0 0 200 160" width="400" height="320" style="-webkit-font-smoothing:antialiased!important;-moz-osx-font-smoothing:grayscale!important;font-family:'Roboto-Regular',roboto,arial,sans-serif;font-weight:normal">

    <g opacity="0">
        <path fill="#FFF" d="M2.6 158h194.7c.4 0 .6-.3.6-.6V2.6c0-.4-.3-.6-.6-.6H2.6c-.4 0-.6.2-.6.6v154.8c0 .4.3.6.6.6z" />
        <path fill="#000" opacity="0.08" d="M197.3 0H2.6C1.1 0 0 1.1 0 2.6V157.4c0 1.4 1.1 2.6 2.6 2.6h194.8c1.4 0 2.6-1.1 2.6-2.6V2.6c-.1-1.5-1.2-2.6-2.7-2.6zM2 2.6c0-.4.2-.6.6-.6h194.7c.3 0 .6.2.6.6v154.8c0 .3-.2.6-.6.6H2.6c-.3 0-.6-.2-.6-.6V2.6z" />
    </g>
  
    <path fill="none" stroke="#000" opacity="0.15" stroke-width="1.5" stroke-linecap="round" d="M48 79.7H153" />

    <path fill="none" d="M31.2 46.3C28 54.4 26.3 63.3 26.3 72.5C26.3 104.5 47.2 131.6 76.2 140.9" stroke="#000" opacity="0.15" stroke-width="1.5" stroke-miterlimit="10" stroke-linecap="round"/>
    <path fill="none" d="M170.7 46.3C173.9 54.4 175.6 63.3 175.6 72.5C175.6 104.5 154.7 131.6 125.7 140.9" stroke="#000" opacity="0.15" stroke-width="1.5" stroke-miterlimit="10" stroke-linecap="round"/>

    <path d="M36.9 36.7L36.2 28.6L31.2 35L31.9 43L36.9 36.7Z" fill="#00CEA6"/>
    <path d="M28.2 45.2L24.8 40.8C23.9 43 23 45.2 22.2 47.5L26 52.4L28.2 45.2Z" fill="#00CEA6"/>
    <path d="M31.9 54.1L36.8 52.4C37.5 49.9 38.3 47.5 39.3 45.1L34.1 46.9L31.9 54.1Z" fill="#00CEA6"/>
    <path d="M24 60.3L19.8 56.4C19.3 58.8 18.9 61.2 18.6 63.6L23 67.7L24 60.3Z" fill="#00CEA6"/>
    <path d="M35.5 58.1L30.1 61L29.1 68.5L34.6 65.5C34.8 63 35.1 60.6 35.5 58.1Z" fill="#00CEA6"/>
    <path d="M23.3 74.6L18.1 70.9C18.1 71.8 18 72.8 18 73.7C18 75.3 18.1 76.8 18.1 78.4L23.3 82.1V74.6Z" fill="#00CEA6"/>
    <path d="M29.4 74.5L29.5 82L35 78C34.7 75.6 34.6 73.2 34.5 70.8L29.4 74.5Z" fill="#00CEA6"/>
    <path d="M25 89L19 86.3C19.4 88.8 19.9 91.2 20.5 93.7L26.6 96.4L25 89Z" fill="#00CEA6"/>
    <path d="M37.5 89.8C36.8 87.5 36.2 85.1 35.7 82.7L31 87.8L32.5 95.2L37.5 89.8Z" fill="#00CEA6"/>
    <path d="M29.7 102.7L22.7 101.2C23.5 103.5 24.4 105.8 25.4 108L32.7 109.5L29.7 102.7Z" fill="#00CEA6"/>
    <path d="M42.1 100.8C40.9 98.6 39.9 96.3 39 94L35.4 100.2L38.5 107.1L42.1 100.8Z" fill="#00CEA6"/>
    <path d="M37.3 115.6L29.3 115.5C30.5 117.6 31.9 119.7 33.3 121.7L41.6 121.8L37.3 115.6Z" fill="#00CEA6"/>
    <path d="M49.1 111.5C47.5 109.6 46.1 107.5 44.8 105.4L42.4 112.1L46.7 118.3L49.1 111.5Z" fill="#00CEA6"/>
    <path d="M39.2 129.1C40.8 130.9 42.5 132.6 44.3 134.3L53.1 132.5L47.6 127.4L39.2 129.1Z" fill="#00CEA6"/>
    <path d="M58.1 120.8C56.2 119.2 54.3 117.4 52.6 115.6L51.7 122.9L57.2 128L58.1 120.8Z" fill="#00CEA6"/>
    <path d="M53.4 141.7C54.8 142.7 56.3 143.7 57.8 144.6L59.4 145.4L67.4 141.1L60.6 137.8L53.4 141.7Z" fill="#00CEA6"/>
    <path d="M61.9 123.8L63.3 132.3L70.1 135.6L68.8 128.2C66.5 126.9 64.1 125.4 61.9 123.8Z" fill="#00CEA6"/>
    <path d="M170.7 35L165.7 28.6L165 36.7L170 43L170.7 35Z" fill="#00CEA6"/>
    <path d="M179.6 47.4C178.8 45.1 178 42.9 177 40.7L173.6 45.1L175.8 52.3L179.6 47.4Z" fill="#00CEA6"/>
    <path d="M170 54.1L167.8 46.9L162.6 45.1C163.6 47.5 164.4 49.9 165.1 52.4L170 54.1Z" fill="#00CEA6"/>
    <path d="M178.8 67.7L183.2 63.6C182.9 61.2 182.5 58.7 182 56.4L177.8 60.3L178.8 67.7Z" fill="#00CEA6"/>
    <path d="M167.3 65.5L172.8 68.5L171.8 61L166.4 58.1C166.8 60.6 167.1 63 167.3 65.5Z" fill="#00CEA6"/>
    <path d="M183.8 70.9L178.6 74.6L178.5 82.1L183.7 78.4C183.8 76.9 183.8 75.3 183.8 73.7C183.9 72.8 183.8 71.8 183.8 70.9Z" fill="#00CEA6"/>
    <path d="M172.5 74.5L167.4 70.8C167.4 73.2 167.2 75.6 166.9 78L172.4 82L172.5 74.5Z" fill="#00CEA6"/>
    <path d="M175.4 96.4L181.5 93.7C182.1 91.3 182.6 88.8 183 86.3L177 89L175.4 96.4Z" fill="#00CEA6"/>
    <path d="M164.5 89.8L169.5 95.2L171 87.8L166.3 82.7C165.8 85.1 165.2 87.5 164.5 89.8Z" fill="#00CEA6"/>
    <path d="M169.1 109.6L176.4 108.1C177.4 105.9 178.3 103.6 179.1 101.3L172.1 102.8L169.1 109.6Z" fill="#00CEA6"/>
    <path d="M166.6 100.3L163 94.1C162.1 96.4 161.1 98.7 159.9 100.9L163.6 107.2L166.6 100.3Z" fill="#00CEA6"/>
    <path d="M160.3 121.8L168.6 121.7C170 119.7 171.3 117.7 172.6 115.5L164.6 115.6L160.3 121.8Z" fill="#00CEA6"/>
    <path d="M159.6 112.2L157.2 105.5C155.9 107.6 154.4 109.6 152.9 111.6L155.3 118.4L159.6 112.2Z" fill="#00CEA6"/>
    <path d="M148.8 132.5L157.6 134.3C159.4 132.6 161.1 130.9 162.7 129.1L154.4 127.4L148.8 132.5Z" fill="#00CEA6"/>
    <path d="M144.7 128L150.2 122.9L149.3 115.6C147.6 117.4 145.7 119.2 143.8 120.8L144.7 128Z" fill="#00CEA6"/>
    <path d="M134.5 141.1L142.5 145.4L144.1 144.6C145.6 143.7 147.1 142.7 148.5 141.7L141.2 137.8L134.5 141.1Z" fill="#00CEA6"/>
    <path d="M140 123.8C137.8 125.4 135.5 126.9 133.1 128.2L131.8 135.6L138.6 132.3L140 123.8Z" fill="#00CEA6"/>

    <g opacity="0">
        <path fill="#FFF" d="M98.7 14.4L111.3 27l-4.3 4.3 2.6 2.5 6.8-6.8L98.7 9.3l-6.8 6.8 2.5 2.6z" />
        <path fill="#FFF" opacity="0.75" d="M107 16.1l2.6 2.6 4.2-4.3L126.4 27l-12.6 12.5L101.2 27l4.3-4.3-2.5-2.5-4.3 4.2L83.6 9.3 65.9 27l17.7 17.6 6.8-6.8-2.5-2.6-4.3 4.3L71 27l12.6-12.6L96.2 27l-4.3 4.3 2.5 2.5 4.3-4.3 15.1 15.1L131.5 27 113.8 9.3z"  />
        <path fill="#FFF" d="M98.7 39.5L86.2 27l4.2-4.3-2.5-2.5-6.8 6.8 17.6 17.6 6.8-6.8-2.5-2.6z" />
    </g>

    <g opacity="1">
        <path fill="#00CEA6" d="M131.5 27L113.8 9.3l-7.5 7.6 2.5 2.5 5-5L126.4 27l-12.6 12.6-5-5.1-2.5-2.5-5.1-5 5.1-5-2.6-2.6-5 5-5-5-2.6-2.5-7.5-7.6L65.9 27l17.7 17.6 7.5-7.5-2.5-2.6-5 5.1L71 27l12.6-12.6 5 5 2.5 2.6 5.1 5-5.1 5 2.6 2.5 5-5 5 5 2.6 2.6 7.5 7.5z" />
        <path fill="#024B6D" d="M98.7 14.4l5 5 2.6 2.6 5 5-5 5 2.5 2.5 7.6-7.5-7.6-7.6-2.5-2.5-7.6-7.6-7.6 7.6 2.6 2.5zM103.7 34.5l-5 5.1-5-5.1-2.6-2.5-5-5 5-5-2.5-2.6-7.5 7.6 7.5 7.5 2.5 2.6 7.6 7.5 7.6-7.5z" />
    </g>

    <path d="M46 56.829H53.2875V58.7247H48.0739V61.5695H52.8431V63.4062H48.0739V66.5171H53.2875V68.4128H46" fill="#024B6D"/>
    <path d="M57.5246 63.9686L54.5316 59.6436H56.8731L58.7097 62.5173H58.7399L60.5766 59.6436H62.9468L59.9538 63.9686L63.036 68.4429H60.6945L58.7989 65.45H58.7687L56.8731 68.4429H54.5029" fill="#024B6D"/>
    <path d="M70.8873 64.0577C70.8873 62.3101 70.0272 61.2431 68.635 61.2431C67.4197 61.2431 66.5308 62.162 66.5308 63.3471V64.7683C66.5308 65.9835 67.4197 66.9024 68.6048 66.9024C70.0272 66.8723 70.8873 65.7763 70.8873 64.0577ZM64.5461 59.6436H66.5021V60.3542H66.5308C67.0947 59.7617 67.9533 59.4064 68.9313 59.4064C71.2425 59.4064 72.8721 61.3322 72.8721 64.0577C72.8721 66.7832 71.2425 68.709 68.9313 68.709C67.9533 68.709 67.0644 68.3236 66.5611 67.7612H66.5308V72.2053H64.5461" fill="#024B6D"/>
    <path d="M80.1899 63.1689C80.1309 61.9536 79.36 61.125 78.1159 61.125C76.961 61.125 76.1009 62.0139 76.0118 63.1689H80.1899ZM73.9983 64.0577C73.9983 61.3021 75.6867 59.4064 78.0857 59.4064C80.5164 59.4064 82.1459 61.2431 82.1459 63.9397V64.6201H75.983C76.042 66.0136 76.8416 66.9615 78.1159 66.9615C79.0939 66.9615 79.7455 66.546 80.4272 65.509L81.8784 66.5761C81.0787 67.9683 79.7757 68.6801 78.1159 68.6801C75.6867 68.6801 73.9983 66.8133 73.9983 64.0577Z" fill="#024B6D"/>
    <path d="M83.5668 59.6437H85.4337V60.4133H85.4639C85.8191 59.8508 86.4707 59.4955 87.3296 59.4955C87.7147 59.4955 88.0703 59.5545 88.3965 59.6437L88.0412 61.5984C87.686 61.5093 87.3897 61.4502 87.0934 61.4502C86.0852 61.4502 85.5519 62.1319 85.5519 63.5543V68.4718H83.5668" fill="#024B6D"/>
    <path d="M93.0477 61.4213V65.7764C93.0477 66.3388 93.2551 66.517 93.9668 66.517H94.8556V68.4127H93.7884C91.8037 68.4127 91.063 67.7022 91.063 65.8655V61.4213H89.6118V59.6436H91.063V57.5095H93.0477V59.6436H95.2108V61.4213" fill="#024B6D"/>
    <path d="M97.1669 59.6437H99.1516V68.4429H97.1669V59.6437ZM97.1079 56.1473H99.2106V58.1623H97.1079V56.1473Z" fill="#024B6D"/>
    <path d="M100.96 65.568L102.766 65.0947C103.062 66.4279 103.685 66.9915 104.988 66.9915C105.936 66.9915 106.528 66.6351 106.528 66.1027C106.528 65.362 105.759 65.0356 104.426 64.6503C102.737 64.1769 101.404 63.6133 101.404 62.0127C101.404 60.5313 102.766 59.4064 104.633 59.4064C106.38 59.4064 107.862 60.4433 108.247 61.9838L106.41 62.4872C106.114 61.5393 105.491 61.0648 104.633 61.0648C103.803 61.0648 103.3 61.4201 103.3 61.9536C103.3 62.4571 103.922 62.6943 105.047 63.0207C106.825 63.5242 108.425 64.1769 108.425 66.0124C108.425 67.613 107.062 68.6789 104.988 68.6789C102.737 68.6789 101.285 67.554 100.96 65.568Z" fill="#024B6D"/>
    <path d="M115.832 63.1689C115.773 61.9536 115.003 61.125 113.758 61.125C112.603 61.125 111.743 62.0139 111.654 63.1689H115.832ZM109.64 64.0577C109.64 61.3021 111.329 59.4064 113.728 59.4064C116.159 59.4064 117.788 61.2431 117.788 63.9397V64.6201H111.626C111.684 66.0136 112.484 66.9615 113.758 66.9615C114.736 66.9615 115.388 66.546 116.07 65.509L117.521 66.5761C116.721 67.9683 115.418 68.6801 113.758 68.6801C111.329 68.6801 109.64 66.8133 109.64 64.0577Z" fill="#024B6D"/>
    <path d="M119.713 68.4429H122.113V66.1016H119.713V68.4429Z" fill="#024B6D"/>
    <path d="M123.595 64.0577C123.595 61.2732 125.313 59.4064 127.801 59.4064C129.906 59.4064 131.387 60.6806 131.712 62.6353L129.816 62.9906C129.609 61.8657 128.897 61.2431 127.801 61.2431C126.468 61.2431 125.61 62.3101 125.61 64.0577C125.61 65.8053 126.468 66.8723 127.801 66.8723C128.928 66.8723 129.609 66.2497 129.816 65.1248L131.712 65.4801C131.387 67.4348 129.875 68.709 127.801 68.709C125.313 68.6801 123.595 66.8133 123.595 64.0577Z" fill="#024B6D"/>
    <path d="M139.415 64.0577C139.415 62.3101 138.557 61.2431 137.134 61.2431C135.712 61.2431 134.853 62.3101 134.853 64.0577C134.853 65.8053 135.712 66.8723 137.134 66.8723C138.557 66.8723 139.415 65.8053 139.415 64.0577ZM132.868 64.0577C132.868 61.2732 134.586 59.4064 137.134 59.4064C139.683 59.4064 141.4 61.2732 141.4 64.0577C141.4 66.8422 139.683 68.709 137.134 68.709C134.586 68.6801 132.868 66.8133 132.868 64.0577Z" fill="#024B6D"/>
    <path d="M142.971 59.6436H144.837V60.3843H144.868C145.341 59.7617 146.201 59.3763 147.118 59.3763C148.007 59.3763 148.896 59.7918 149.4 60.4723H149.43C150.022 59.7617 150.793 59.3763 151.8 59.3763C153.696 59.3763 155 60.7396 155 62.4872V68.4128H153.044V62.8425C153.044 61.8055 152.423 61.213 151.474 61.213C150.526 61.213 149.904 61.8946 149.904 62.9316V68.4128H148.037V62.8425C148.037 61.8055 147.415 61.213 146.467 61.213C145.519 61.213 144.896 61.8946 144.896 62.9316V68.4128H142.942V59.6436" fill="#024B6D"/>

    <text fill="#00CEA6" font-size="0.6em" text-anchor="middle" x="100" y="95">Best Dentists in Canton </text>
    <text fill="#00CEA6" font-size="0.6em" text-anchor="middle" x="100" y="107"></text>
    <text fill="#00CEA6" font-size="0.6em" text-anchor="middle" x="100" y="119"></text>
    <text fill="#00CEA6" font-size="0.6em" text-anchor="middle" x="100" y="131"></text>

    <text class="year" fill="#024B6D" font-size="16px" text-anchor="middle" x="100" y="148">2023</text>

</svg>